# xmcd
#
# Track frame offsets:
#	150
#	16875
#	34950
#	56112
#	77025
#	94737
#	113075
#	134325
#	151425
#	173287
#
# Disc length: 2546 seconds
#
# Revision: 4
# Processed by: cddbd v1.5.2PL0 Copyright (c) Steve Scherf et al.
# Submitted via: EasyCDDAExtractor 15.2.1.1
#
DISCID=7509f00a
DTITLE=郭富城 - 愛定你
DYEAR=1997
DGENRE=Pop
TTITLE0=愛定你
TTITLE1=查無此人
TTITLE2=你是我心中最愛的人
TTITLE3=一切只為你
TTITLE4=找自己愛的人
TTITLE5=愛的咒語
TTITLE6=希望你還好
TTITLE7=浪人期望
TTITLE8=霧
TTITLE9=愛的呼喚
EXTD=PANDA PANDA YEAR: 1997
EXTT0=
EXTT1=
EXTT2=
EXTT3=
EXTT4=
EXTT5=
EXTT6=
EXTT7=
EXTT8=
EXTT9=
PLAYORDER=
